<?xml version="1.0"?>
<svg width="640" height="480" xmlns="http://www.w3.org/2000/svg" xmlns:svg="http://www.w3.org/2000/svg">
 <!-- Created with SVG-edit - https://github.com/SVG-Edit/svgedit-->
 <g class="layer">
  <title>Layer 1</title>
  <rect fill="#ffffff" height="62.71036" id="svg_15" stroke="#000000" stroke-width="5" transform="matrix(1 0 0 1 0 0) rotate(90 451.915 113.187)" width="140.959368" x="381.435094" y="81.832305"/>
  <g id="svg_6">
   <rect fill="#ffffff" height="62.71036" id="svg_1" stroke="#000000" stroke-width="5" transform="rotate(102.015 112 108.5)" width="140.959368" x="41.520315" y="77.14482"/>
   <text fill="#000000" font-family="serif" font-size="24" id="svg_5" stroke="#000000" stroke-width="0" text-anchor="middle" x="113.914771" xml:space="preserve" y="117.187494">1</text>
  </g>
  <rect fill="#ffffff" height="62.71036" id="svg_8" stroke="#000000" stroke-width="5" transform="rotate(76.5514 252.915 106.188)" width="140.959368" x="182.435094" y="74.83232"/>
  <text fill="#000000" font-family="serif" font-size="24" id="svg_9" stroke="#000000" stroke-width="0" text-anchor="middle" x="252.829551" xml:space="preserve" y="117.874994">2</text>
  <rect fill="#ffffff" height="62.71036" id="svg_10" stroke="#000000" stroke-width="5" transform="matrix(1 0 0 1 0 0) rotate(76.5514 118.915 287.188)" width="140.959368" x="48.435102" y="255.832305"/>
  <text fill="#000000" font-family="serif" font-size="24" id="svg_11" stroke="#000000" stroke-width="0" text-anchor="middle" transform="matrix(1 0 0 1 0 0)" x="118.914771" xml:space="preserve" y="293.187494">3</text>
  <line fill="none" id="svg_12" stroke="#000000" stroke-width="5" x1="331.914771" x2="334.914771" y1="34.187494" y2="224.187494"/>
  <rect fill="#ffffff" height="62.71036" id="svg_16" stroke="#000000" stroke-width="5" transform="matrix(1 0 0 1 0 0) rotate(90 528.415 112.187)" width="140.959368" x="457.93511" y="80.83232"/>
  <rect fill="#ffffff" height="62.71036" id="svg_17" stroke="#000000" stroke-width="5" transform="rotate(90 409.415 391.188)" width="140.959368" x="338.935094" y="359.83232"/>
  <rect fill="#ffffff" height="62.71036" id="svg_18" stroke="#000000" stroke-width="5" transform="matrix(1 0 0 1 0 0) rotate(-180 562.415 302.188)" width="140.959368" x="491.935064" y="270.83229"/>
  <text fill="#000000" font-family="serif" font-size="24" id="svg_19" stroke="#000000" stroke-width="0" text-anchor="middle" x="451.914771" xml:space="preserve" y="119.187494">4</text>
  <text fill="#000000" font-family="serif" font-size="24" id="svg_20" stroke="#000000" stroke-width="0" style="cursor: move;" text-anchor="middle" transform="matrix(1 0 0 1 0 0)" x="530.414756" xml:space="preserve" y="121.369325">5</text>
  <text fill="#000000" font-family="serif" font-size="24" id="svg_21" stroke="#000000" stroke-width="0" text-anchor="middle" x="405.414771" xml:space="preserve" y="399.369325">6</text>
  <text fill="#000000" font-family="serif" font-size="24" id="svg_22" stroke="#000000" stroke-width="0" style="cursor: move;" text-anchor="middle" x="554.414794" xml:space="preserve" y="309.369325">7</text>
 </g>
</svg>