<svg version="1.1" xmlns="http://www.w3.org/2000/svg" viewBox="0 0 220.77932082359985 93.54245134912583" width="220.77932082359985" height="93.54245134912583">
  <!-- svg-source:excalidraw -->
  
  <defs>
    <style class="style-fonts">
      @font-face {
        font-family: "Virgil";
        src: url("https://excalidraw.com/Virgil.woff2");
      }
      @font-face {
        font-family: "Cascadia";
        src: url("https://excalidraw.com/Cascadia.woff2");
      }
    </style>
  </defs>
  <rect x="0" y="0" width="220.77932082359985" height="93.54245134912583" fill="#ffffff"></rect><g stroke-linecap="round"><g transform="translate(10.550503084858065 50.37676687705846) rotate(0 35.340377658858415 14.8634146205614)" fill-rule="evenodd"><path d="M-1.12 0.97 L5.54 0.03 L53.73 3.34 L71.39 -2.83 L69.99 30.07 L55.81 23.61 L10.12 23.19 L1.2 31.47 L-0.51 -0.66" stroke="none" stroke-width="0" fill="#000000" fill-rule="evenodd"></path><path d="M-0.55 0.49 C1.4 -0.04, 2.55 0.32, 5.25 2.21 M0.18 -0.14 C2.13 0.51, 4.32 1.34, 5.74 1.73 M5.03 2.18 C25.37 4.56, 42.92 2.95, 52.9 3.32 M6.06 0.93 C21.04 3.28, 37.41 3.93, 54.09 4.3 M54.87 4.7 C59.79 0.19, 65.26 0.12, 71.23 -3.44 M53.35 3.36 C57.71 2.04, 62.44 -0.34, 68.98 -2.95 M68.06 -3.14 C71.6 3, 69.99 12.64, 70.44 27.42 M70.43 -2 C70.47 7.56, 70.2 18.59, 68.9 28.23 M68.74 29.19 C65.28 26.88, 60.39 26.36, 57.63 25.86 M68.88 28.55 C66.33 28.29, 64.06 27.55, 58.01 24.74 M58.87 23.66 C41.4 24.84, 23.45 23.5, 12.14 22.29 M58.13 25.47 C39.95 24.32, 24 24.27, 11.49 25.13 M11.35 23.86 C9.41 27.15, 6.36 29.1, 1.59 31.14 M11.88 24.55 C9.01 25.71, 6.03 28.52, 1.27 32.17 M1.33 33.17 C0.36 21.09, 0.58 15.78, 1.78 0.61 M1.97 30.66 C1.61 21, 0.63 10.31, 0.57 -0.93 M0 0 C0 0, 0 0, 0 0 M0 0 C0 0, 0 0, 0 0" stroke="#000000" stroke-width="1" fill="none"></path></g></g><mask></mask><g stroke-linecap="round"><g transform="translate(85.90703189584747 47.30186011452486) rotate(0 62.309590895492875 13.969507620037064)" fill-rule="evenodd"><path d="M1.05 1.68 L9.85 0.13 L97.13 2.88 L123.99 -3.27 L122.92 29.93 L103.79 25.92 L21.56 21.77 L3.78 31.78 L-0.69 1.14" stroke="none" stroke-width="0" fill="#000000" fill-rule="evenodd"></path><path d="M-0.25 -0.33 C1.57 -0.38, 4.48 0.84, 10.39 1.03 M0.28 -0.19 C3.3 0.03, 6.59 1.54, 9.58 2.07 M11.2 0.93 C32.48 0.55, 52.94 2.51, 95.68 3.38 M10.26 1.19 C38.69 1.73, 70.37 1.93, 94.39 4.11 M94.11 2.97 C103.48 0.19, 112.35 -1.94, 124.87 -4.7 M95.25 4.18 C103.23 1.97, 111.54 -0.37, 122.57 -2.69 M123.23 -1.68 C122.8 4.91, 121.08 12.5, 123.08 28.8 M123.75 -2.31 C121.86 7.01, 122.45 18.14, 122.22 28.8 M123 27.2 C113.89 28.69, 107.51 27.38, 100.59 23.5 M122.11 29 C117.17 26.4, 111.12 26.28, 102.09 24.67 M100.02 24.15 C75.99 24.95, 46.92 22.2, 19.77 21.61 M102.77 24.87 C85.02 23.89, 66.04 24.07, 21.87 23.24 M21.49 21.84 C17.99 24.89, 11.77 27.53, 1.43 32.64 M20.93 22.57 C16.3 25.07, 11.27 27.52, 3.76 30.16 M1.51 31.62 C0.86 17.29, 1.19 5.26, 0.01 0.63 M3.95 30.81 C2.65 24.29, 1.29 16.9, 0.15 0.56 M0 0 C0 0, 0 0, 0 0 M0 0 C0 0, 0 0, 0 0" stroke="#000000" stroke-width="1" fill="none"></path></g></g><mask></mask><g stroke-linecap="round"><g transform="translate(138.52541998499873 55.620641340322436) rotate(9.902486568930144 22.739061921327448 -24.57375282886852)" fill-rule="evenodd"><path d="M0 0 L15.02 -4.21 L24.34 -7.75 L31.73 -12.84 L37.44 -21.19 L42.41 -32.03 L45.44 -42.1 L45.28 -48.14 L43.45 -49.06 L40.34 -49 L31.7 -46.52 L22.16 -41.9 L14.56 -36.34 L9.37 -28.79 L-0.36 -3.21" stroke="none" stroke-width="0" fill="#000000" fill-rule="evenodd"></path><path d="M0 0 C5.29 -2.14, 24.19 -4.81, 31.73 -12.84 C39.28 -20.86, 48.15 -44.22, 45.28 -48.14 C42.42 -52.05, 22.16 -43.83, 14.56 -36.34 C6.95 -28.86, 2.13 -8.73, -0.36 -3.21 M0 0 C5.29 -2.14, 24.19 -4.81, 31.73 -12.84 C39.28 -20.86, 48.15 -44.22, 45.28 -48.14 C42.42 -52.05, 22.16 -43.83, 14.56 -36.34 C6.95 -28.86, 2.13 -8.73, -0.36 -3.21" stroke="#000000" stroke-width="1" fill="none"></path></g></g><mask></mask><g stroke-linecap="round"><g transform="translate(107.55203095135948 50.72054454529598) rotate(286.16119554788 13.324671216529168 -19.204982633281645)" fill-rule="evenodd"><path d="M0 0 L16.23 -9.5 L20.83 -14.05 L23.82 -20.24 L25.99 -27.78 L26.89 -34.48 L26.09 -38.15 L22.64 -37.79 L17.05 -34.7 L11.08 -30.14 L6.5 -25.34 L3.75 -19.72 L-0.24 -2.09" stroke="none" stroke-width="0" fill="#000000" fill-rule="evenodd"></path><path d="M0 0 C3.47 -2.34, 16.48 -7.7, 20.83 -14.05 C25.18 -20.41, 28.48 -36.27, 26.09 -38.15 C23.7 -40.03, 10.89 -31.35, 6.5 -25.34 C2.11 -19.33, 0.88 -5.97, -0.24 -2.09 M0 0 C3.47 -2.34, 16.48 -7.7, 20.83 -14.05 C25.18 -20.41, 28.48 -36.27, 26.09 -38.15 C23.7 -40.03, 10.89 -31.35, 6.5 -25.34 C2.11 -19.33, 0.88 -5.97, -0.24 -2.09" stroke="#000000" stroke-width="1" fill="none"></path></g></g><mask></mask><g stroke-linecap="round"><g transform="translate(20.549556548965484 58.8629625265545) rotate(0 24.24655970461754 -0.17828352723984153)"><path d="M0 0 C8.08 -0.06, 40.41 -0.3, 48.49 -0.36 M0 0 C8.08 -0.06, 40.41 -0.3, 48.49 -0.36" stroke="#ffff" stroke-width="1" fill="none"></path></g></g><mask></mask><g stroke-linecap="round"><g transform="translate(89.7235651180199 56.01042609071715) rotate(0 55.62446049882965 -0.17828352723984153)"><path d="M0 0 C18.54 -0.06, 92.71 -0.3, 111.25 -0.36 M0 0 C18.54 -0.06, 92.71 -0.3, 111.25 -0.36" stroke="#ffff" stroke-width="1" fill="none"></path></g></g><mask></mask></svg>